<?xml version="1.0" encoding="UTF-8" standalone="no"?><svg xmlns="http://www.w3.org/2000/svg" xmlns:xlink="http://www.w3.org/1999/xlink" contentScriptType="application/ecmascript" contentStyleType="text/css" height="201px" preserveAspectRatio="none" style="width:380px;height:201px;" version="1.1" viewBox="0 0 380 201" width="380px" zoomAndPan="magnify"><defs><filter height="300%" id="f1t93pz968hscw" width="300%" x="-1" y="-1"><feGaussianBlur result="blurOut" stdDeviation="2.0"/><feColorMatrix in="blurOut" result="blurOut2" type="matrix" values="0 0 0 0 0 0 0 0 0 0 0 0 0 0 0 0 0 0 .4 0"/><feOffset dx="4.0" dy="4.0" in="blurOut2" result="blurOut3"/><feBlend in="SourceGraphic" in2="blurOut3" mode="normal"/></filter></defs><g><!--MD5=[9182b206835a43bc1550ae1fc8c5ab74]
class ConcreteSubject--><rect fill="#F4A460" filter="url(#f1t93pz968hscw)" height="61.0679" id="ConcreteSubject" rx="5" ry="5" style="stroke: #000000; stroke-width: 1.5;" width="158" x="6" y="8"/><ellipse cx="21" cy="30.534" fill="#ADD1B2" rx="11" ry="11" style="stroke: #000000; stroke-width: 1.0;"/><path d="M20.4688,37.4558 Q18.7188,37.4558 17.5781,36.7215 Q16.4531,35.9715 15.8906,34.6277 Q15.3438,33.2683 15.3438,31.4715 Q15.3438,29.4402 16,27.9871 Q16.6563,26.534 17.9375,25.7527 Q19.2188,24.9715 21.0938,24.9715 Q21.9844,24.9715 22.6563,25.159 Q23.3281,25.3308 24.0156,25.6746 L23.2031,27.6902 Q22.5781,27.3777 22.0313,27.2527 Q21.5,27.1277 21.0156,27.1277 Q19.8438,27.1277 19.1406,27.659 Q18.4375,28.1902 18.1406,29.1433 Q17.8438,30.0965 17.8438,31.3621 Q17.8438,33.3777 18.5625,34.3465 Q19.2813,35.2996 20.875,35.2996 Q21.4688,35.2996 22.0938,35.1433 Q22.7188,34.9871 23.5469,34.6121 L23.5469,36.8308 Q22.8125,37.1433 22.0156,37.2996 Q21.2344,37.4558 20.4688,37.4558 Z "/><text fill="#000000" font-family="sans-serif" font-size="14" lengthAdjust="spacingAndGlyphs" textLength="110" x="43" y="35.9659">ConcreteSubject</text><line style="stroke: #000000; stroke-width: 1.5;" x1="7" x2="163" y1="53.0679" y2="53.0679"/><line style="stroke: #000000; stroke-width: 1.5;" x1="7" x2="163" y1="61.0679" y2="61.0679"/><!--MD5=[d80bec951696c7ab326befc0be10e4b8]
class ConcreteObserver--><rect fill="#F4A460" filter="url(#f1t93pz968hscw)" height="61.0679" id="ConcreteObserver" rx="5" ry="5" style="stroke: #000000; stroke-width: 1.5;" width="170" x="199" y="8"/><ellipse cx="214" cy="30.534" fill="#ADD1B2" rx="11" ry="11" style="stroke: #000000; stroke-width: 1.0;"/><path d="M213.4688,37.4558 Q211.7188,37.4558 210.5781,36.7215 Q209.4531,35.9715 208.8906,34.6277 Q208.3438,33.2683 208.3438,31.4715 Q208.3438,29.4402 209,27.9871 Q209.6563,26.534 210.9375,25.7527 Q212.2188,24.9715 214.0938,24.9715 Q214.9844,24.9715 215.6563,25.159 Q216.3281,25.3308 217.0156,25.6746 L216.2031,27.6902 Q215.5781,27.3777 215.0313,27.2527 Q214.5,27.1277 214.0156,27.1277 Q212.8438,27.1277 212.1406,27.659 Q211.4375,28.1902 211.1406,29.1433 Q210.8438,30.0965 210.8438,31.3621 Q210.8438,33.3777 211.5625,34.3465 Q212.2813,35.2996 213.875,35.2996 Q214.4688,35.2996 215.0938,35.1433 Q215.7188,34.9871 216.5469,34.6121 L216.5469,36.8308 Q215.8125,37.1433 215.0156,37.2996 Q214.2344,37.4558 213.4688,37.4558 Z "/><text fill="#000000" font-family="sans-serif" font-size="14" lengthAdjust="spacingAndGlyphs" textLength="122" x="236" y="35.9659">ConcreteObserver</text><line style="stroke: #000000; stroke-width: 1.5;" x1="200" x2="368" y1="53.0679" y2="53.0679"/><line style="stroke: #000000; stroke-width: 1.5;" x1="200" x2="368" y1="61.0679" y2="61.0679"/><!--MD5=[1f664ea8189344b5829dbe0ac084b532]
class TestPatternObservateur--><rect fill="#F4A460" filter="url(#f1t93pz968hscw)" height="61.0679" id="TestPatternObservateur" rx="5" ry="5" style="stroke: #000000; stroke-width: 1.5;" width="209" x="79.5" y="129"/><ellipse cx="94.5" cy="151.534" fill="#ADD1B2" rx="11" ry="11" style="stroke: #000000; stroke-width: 1.0;"/><path d="M93.9688,158.4558 Q92.2188,158.4558 91.0781,157.7215 Q89.9531,156.9715 89.3906,155.6277 Q88.8438,154.2683 88.8438,152.4715 Q88.8438,150.4402 89.5,148.9871 Q90.1563,147.534 91.4375,146.7527 Q92.7188,145.9715 94.5938,145.9715 Q95.4844,145.9715 96.1563,146.159 Q96.8281,146.3308 97.5156,146.6746 L96.7031,148.6902 Q96.0781,148.3777 95.5313,148.2527 Q95,148.1277 94.5156,148.1277 Q93.3438,148.1277 92.6406,148.659 Q91.9375,149.1902 91.6406,150.1433 Q91.3438,151.0965 91.3438,152.3621 Q91.3438,154.3777 92.0625,155.3465 Q92.7813,156.2996 94.375,156.2996 Q94.9688,156.2996 95.5938,156.1433 Q96.2188,155.9871 97.0469,155.6121 L97.0469,157.8308 Q96.3125,158.1433 95.5156,158.2996 Q94.7344,158.4558 93.9688,158.4558 Z "/><text fill="#000000" font-family="sans-serif" font-size="14" lengthAdjust="spacingAndGlyphs" textLength="161" x="116.5" y="156.9659">TestPatternObservateur</text><line style="stroke: #000000; stroke-width: 1.5;" x1="80.5" x2="287.5" y1="174.0679" y2="174.0679"/><line style="stroke: #000000; stroke-width: 1.5;" x1="80.5" x2="287.5" y1="182.0679" y2="182.0679"/><!--MD5=[df80d6c47a0bc7b2aa3fd64256eb1324]
reverse link ConcreteSubject to TestPatternObservateur--><path d="M122.89,85.05 C135.08,99.69 148.26,115.54 159.25,128.74 " fill="none" id="ConcreteSubject&lt;-TestPatternObservateur" style="stroke: #000000; stroke-width: 1.0; stroke-dasharray: 7.0,7.0;"/><polygon fill="none" points="117.14,89.07,109.73,69.22,127.9,80.12,117.14,89.07" style="stroke: #000000; stroke-width: 1.0;"/><!--MD5=[d2aa1f2af6b947c529276e6d57715ce4]
reverse link ConcreteObserver to TestPatternObservateur--><path d="M246.12,84.57 C233.7,99.35 220.22,115.39 209,128.74 " fill="none" id="ConcreteObserver&lt;-TestPatternObservateur" style="stroke: #000000; stroke-width: 1.0; stroke-dasharray: 7.0,7.0;"/><polygon fill="none" points="240.8,80.03,259.02,69.22,251.52,89.04,240.8,80.03" style="stroke: #000000; stroke-width: 1.0;"/><!--MD5=[457864724cbcff7e1276cdbe780cf0a3]
@startuml
skinparam {
  RoundCorner 10
  Shadowing true
  ArrowColor Black
  ArrowFontSize 16
  Padding 8
  WrapWidth 1024
  note {
    BackgroundColor OldLace
    BorderColor BurlyWood
    FontSize 16
  }
  class {
    BackgroundColor SandyBrown
    BorderColor Black
    FontSize 14
  }
  sequence {
    LifeLineBorderColor Black
    LifeLineBackgroundColor White
    MessageAlignment center
    Participant {
      BorderColor Black
      BorderThickness 0.5
      BackgroundColor White
      FontSize 18
    }
  }
}


class ConcreteSubject
class ConcreteObserver
class TestPatternObservateur

ConcreteSubject <|.. TestPatternObservateur
ConcreteObserver <|.. TestPatternObservateur
@enduml

PlantUML version 1.2020.02(Sun Mar 01 11:22:07 CET 2020)
(GPL source distribution)
Java Runtime: OpenJDK Runtime Environment
JVM: OpenJDK 64-Bit Server VM
Java Version: 18.0.2-ea+9-Debian-2
Operating System: Linux
Default Encoding: UTF-8
Language: en
Country: US
--></g></svg>